<?xml version="1.0" standalone="no"?>
<!DOCTYPE svg PUBLIC "-//W3C//DTD SVG 20010904//EN"
 "http://www.w3.org/TR/2001/REC-SVG-20010904/DTD/svg10.dtd">
<svg version="1.0" xmlns="http://www.w3.org/2000/svg"
 width="245.000000pt" height="245.000000pt" viewBox="0 0 245.000000 245.000000"
 preserveAspectRatio="xMidYMid meet">
<metadata>
Created by potrace 1.11, written by Peter Selinger 2001-2013
</metadata>
<g transform="translate(0.000000,245.000000) scale(0.100000,-0.100000)"
fill="#000000" stroke="none">
<path d="M1929 2425 c-101 -25 -131 -41 -187 -96 -52 -51 -94 -131 -122 -230
-20 -73 -30 -95 -30 -67 0 19 -46 38 -120 52 -14 2 -46 9 -73 15 -26 6 -64 14
-85 17 -20 3 -44 7 -52 9 -8 3 -33 7 -55 10 -22 4 -51 8 -64 10 -147 25 -392
25 -516 0 -143 -28 -253 -105 -302 -212 -82 -179 38 -524 266 -763 l69 -73
-29 -25 c-45 -37 -61 -74 -48 -110 6 -17 17 -33 26 -36 8 -4 63 9 122 28 112
36 242 71 301 81 19 3 49 8 65 12 56 12 190 10 250 -4 33 -8 83 -25 110 -39
48 -25 125 -90 125 -105 0 -4 -27 3 -60 17 -95 38 -226 57 -365 51 -176 -8
-276 -31 -373 -87 -87 -51 -148 -160 -89 -160 16 0 23 -6 24 -21 7 -82 133
-131 223 -87 60 30 90 79 85 139 -3 47 -2 49 24 50 73 4 231 -5 261 -15 8 -2
27 -7 43 -10 24 -6 27 -11 27 -50 0 -61 48 -131 108 -156 69 -29 131 -20 177
26 20 20 40 31 48 28 63 -24 108 279 64 424 -18 60 -53 122 -69 122 -6 0 -8
16 -4 43 8 51 13 158 21 422 3 110 8 220 11 245 24 215 78 330 170 360 28 9
37 7 70 -15 67 -45 128 -9 143 83 8 50 -2 88 -28 115 -22 23 -80 23 -162 2z
m-504 -449 c22 -2 69 -4 104 -5 l63 -1 -6 -67 c-4 -38 -9 -88 -11 -113 -3 -25
-7 -99 -10 -165 -9 -198 -31 -375 -48 -386 -5 -4 -28 -2 -51 3 -49 12 -217 14
-301 4 -131 -15 -300 -57 -406 -100 -13 -6 -34 32 -108 197 -103 231 -137 324
-146 402 -23 189 134 248 640 239 132 -3 258 -6 280 -8z"/>
<path d="M433 321 c-11 -12 -37 -52 -59 -90 -27 -49 -46 -72 -64 -76 -24 -6
-40 -21 -40 -39 0 -4 9 -6 20 -3 11 3 20 4 20 4 0 -1 -7 -24 -15 -50 -13 -42
-13 -49 0 -54 27 -10 42 5 48 47 7 51 6 51 51 55 41 3 51 -6 60 -56 8 -46 26
-63 49 -46 15 11 15 16 1 57 -10 27 -17 89 -19 155 -4 119 -14 137 -52 96z
m-22 -169 c-18 -2 -35 -1 -38 2 -3 3 10 31 28 63 l34 58 5 -60 5 -60 -34 -3z"/>
<path d="M599 328 c-26 -22 -51 -106 -54 -181 -1 -40 -6 -80 -10 -90 -5 -12
-1 -24 15 -37 23 -20 43 -16 81 16 14 12 18 11 34 -6 10 -11 26 -20 36 -20 22
0 77 46 67 56 -5 4 -16 0 -26 -9 -10 -10 -22 -17 -25 -17 -16 0 -5 54 24 111
48 93 52 189 9 189 -41 0 -77 -94 -83 -220 -2 -44 -6 -55 -19 -55 -10 0 -23
-6 -30 -13 -39 -39 -37 27 4 107 33 64 40 139 17 168 -14 16 -21 16 -40 1z
m33 -63 c-1 -39 -33 -135 -45 -135 -6 0 18 164 27 178 13 21 19 7 18 -43z
m130 20 c2 -22 -4 -54 -17 -85 -38 -91 -43 -72 -14 68 12 60 25 67 31 17z"/>
<path d="M927 315 c-36 -25 -47 -48 -28 -60 14 -8 61 36 66 63 2 12 3 22 2 22
-1 0 -19 -11 -40 -25z"/>
<path d="M1495 320 c-10 -11 -24 -20 -30 -20 -20 0 -64 -40 -82 -73 -9 -18
-16 -57 -17 -88 -1 -143 127 -181 215 -65 40 53 49 82 49 156 0 38 -6 55 -26
79 -31 37 -81 42 -109 11z m75 -47 c19 -24 21 -37 17 -83 -3 -31 -14 -71 -27
-93 -39 -65 -83 -75 -124 -26 -31 36 -35 102 -10 155 20 42 34 44 34 5 0 -16
3 -36 6 -45 11 -29 20 -17 16 22 -3 27 2 45 18 65 27 34 43 34 70 0z"/>
<path d="M1138 251 c-19 -7 -58 -54 -58 -69 0 -6 -4 -13 -8 -16 -5 -3 -9 8 -9
25 0 16 -4 34 -10 40 -14 14 -42 1 -38 -19 6 -43 -95 -183 -108 -149 -3 8 -3
32 0 53 12 82 10 99 -14 102 -19 3 -23 -1 -24 -25 0 -15 -2 -37 -5 -48 -2 -11
-5 -40 -6 -64 -2 -35 2 -47 21 -62 20 -17 26 -17 50 -4 15 7 38 30 52 49 l24
36 5 -42 c8 -70 31 -61 64 24 29 73 54 117 69 118 4 0 7 -29 7 -64 0 -110 29
-149 77 -105 27 26 83 129 83 154 0 32 -26 13 -50 -37 -26 -56 -47 -84 -57
-75 -3 3 -7 34 -8 69 -2 35 -3 70 -4 78 -1 20 -32 38 -53 31z"/>
<path d="M1778 235 c-14 -13 -29 -34 -33 -45 -8 -25 -25 -17 -18 8 5 22 -23
50 -37 36 -5 -5 -10 -56 -12 -114 -3 -96 -1 -105 15 -105 13 0 24 15 37 52 20
58 60 133 71 133 3 0 9 -37 11 -81 4 -65 9 -85 23 -95 25 -19 28 -18 57 11
l26 25 16 -24 c20 -32 52 -36 97 -14 62 29 152 149 130 171 -11 11 -41 -8 -41
-25 0 -18 -62 -88 -90 -103 -34 -17 -60 -10 -60 15 0 12 12 22 34 30 66 22 96
90 56 130 -41 41 -118 -5 -139 -83 -11 -42 -45 -96 -55 -87 -3 3 -7 40 -9 83
-6 107 -28 130 -79 82z m257 -37 c-1 -13 -3 -26 -4 -30 -1 -10 -62 -41 -68
-35 -8 9 25 75 43 85 24 13 32 8 29 -20z"/>
</g>
</svg>
